<?xml version="1.0" encoding="UTF-8" standalone="no"?>
<!-- Created with Inkscape (http://www.inkscape.org/) -->

<svg
   width="274.31708mm"
   height="57.595444mm"
   viewBox="0 0 274.31708 57.595444"
   version="1.1"
   id="svg1"
   xmlSpace="preserve"
   xmlnsSvg="http://www.w3.org/2000/svg"
   xmlns="http://www.w3.org/2000/svg">
  <defs
     id="defs1" />
  <g
     id="layer1"
     transform="translate(20.271187,-111.82898)">
    <g
       id="g19"
       style="fill:#ffffff">
      <path
         style="fill:#000000;fill-opacity:1"
         d="m 235.84852,150.84018 -0.58804,-0.41188 v -9.3627 -9.3627 l 0.58804,-0.41188 c 0.67494,-0.47275 3.13994,-0.55935 3.92727,-0.13799 0.4885,0.26144 0.51178,0.63451 0.51178,8.20209 v 7.92819 h 6.36739 c 3.88323,0 6.56706,0.10686 6.87917,0.27389 0.40951,0.21916 0.51177,0.56096 0.51177,1.71048 0,1.14953 -0.10226,1.49133 -0.51177,1.71049 -0.32156,0.17209 -3.59414,0.27389 -8.80467,0.27389 -7.0775,0 -8.37908,-0.0604 -8.88094,-0.41188 z"
         id="path19" />
      <path
         style="fill:#000000;fill-opacity:1"
         d="m 214.41727,150.84018 -0.58804,-0.41188 v -9.24541 c 0,-10.81687 -0.13176,-10.30375 2.64584,-10.30375 2.73534,0 2.64583,-0.29539 2.64583,8.73125 v 7.67292 h 6.2351 c 3.79204,0 6.43563,0.10732 6.74688,0.27389 0.40951,0.21916 0.51177,0.56096 0.51177,1.71048 0,1.14953 -0.10226,1.49133 -0.51177,1.71049 -0.32156,0.17209 -3.59414,0.27389 -8.80467,0.27389 -7.0775,0 -8.37908,-0.0604 -8.88094,-0.41188 z"
         id="path18" />
      <path
         style="fill:#000000;fill-opacity:1"
         d="m 188.15875,150.84808 c -0.27659,-0.33328 0.005,-1.70505 1.60838,-7.83742 2.11394,-8.08468 2.58751,-9.1888 4.47774,-10.43969 1.75211,-1.1595 3.39319,-1.45202 9.07012,-1.61678 4.78959,-0.139 5.27263,-0.11177 5.75468,0.32449 0.50626,0.45815 0.52623,0.82958 0.52623,9.78692 0,10.79032 0.15116,10.18646 -2.54995,10.18646 -2.23489,0 -2.44634,-0.2317 -2.5354,-2.77813 l -0.074,-2.11666 h -5.13732 -5.13733 l -0.20125,0.66146 c -0.11069,0.3638 -0.38593,1.32578 -0.61165,2.13774 -0.48812,1.75587 -1.02508,2.09559 -3.31229,2.09559 -1.06053,0 -1.64744,-0.12626 -1.87793,-0.40398 z m 16.35119,-12.22987 0.0734,-3.77032 -2.71925,9.9e-4 c -2.96178,0.001 -3.96423,0.35132 -4.84264,1.69194 -0.40914,0.62443 -1.71306,4.92778 -1.71306,5.65365 0,0.26509 0.99327,0.32308 4.56406,0.26644 l 4.56406,-0.0724 z"
         id="path17" />
      <path
         style="fill:#000000;fill-opacity:1"
         d="m 166.13809,150.96628 c -0.42742,-0.24894 -0.46271,-0.99609 -0.45897,-9.71539 0.002,-5.50866 0.1089,-9.61113 0.2556,-9.84258 0.21364,-0.33705 1.33966,-0.39644 7.47043,-0.39396 6.96173,0.003 7.266,0.0245 8.54179,0.60949 2.47494,1.13482 3.608,2.67327 3.62825,4.92638 0.013,1.4491 -0.28729,2.26352 -1.20653,3.27206 l -0.55485,0.60876 0.85775,0.67129 c 1.24144,0.97158 1.73202,2.08589 1.73643,3.94417 0.007,3.08477 -2.05594,5.31843 -5.46035,5.91128 -2.13821,0.37235 -14.173,0.37926 -14.80955,0.008 z m 14.64215,-4.1753 c 0.6953,-0.8596 0.67355,-2.66192 -0.0431,-3.57303 l -0.54837,-0.69714 h -4.74329 -4.7433 v 2.53024 2.53025 l 4.78642,-0.0829 c 4.66373,-0.0807 4.79937,-0.0989 5.29167,-0.70747 z m -0.81767,-8.5035 c 0.76046,-0.76047 0.70253,-2.23194 -0.12027,-3.05474 -0.63555,-0.63555 -0.74015,-0.64943 -4.89479,-0.64943 h -4.24536 v 2.11667 2.11666 h 4.36562 c 4.01285,0 4.40839,-0.0428 4.8948,-0.52916 z"
         id="path16" />
      <path
         style="fill:#000000;fill-opacity:1"
         d="m 144.12653,150.66402 c -0.35334,-0.50445 -0.41188,-1.87713 -0.41188,-9.65729 0,-8.71648 0.0206,-9.08984 0.52917,-9.59842 0.5074,-0.50741 0.88194,-0.52917 9.10922,-0.52917 7.44728,0 8.63495,0.0549 8.99584,0.41578 0.52053,0.52053 0.56588,2.83443 0.0637,3.25119 -0.23017,0.19102 -2.5888,0.31673 -6.81302,0.36312 l -6.46097,0.0709 -0.0773,2.05053 -0.0773,2.05052 h 5.65866 c 6.42202,0 6.53443,0.0349 6.53443,2.03034 0,1.88585 -0.17813,1.93841 -6.56927,1.93841 h -5.60156 v 2.11666 2.11667 h 6.60527 c 7.44402,0 7.15306,-0.0846 7.15306,2.08037 0,1.93489 0.23469,1.88838 -9.5289,1.88838 -8.68765,0 -8.6978,-6.6e-4 -9.10922,-0.58804 z"
         id="path15" />
      <path
         style="fill:#000000;fill-opacity:1"
         d="m 120.23288,150.95468 c -0.2523,-0.25755 -0.33073,-2.61309 -0.33073,-9.93269 0,-9.54676 0.003,-9.5966 0.56873,-9.89944 0.40157,-0.21491 2.32621,-0.26736 6.54844,-0.17844 5.15831,0.10863 6.21946,0.20342 7.72513,0.69006 4.40743,1.42449 6.27722,4.6653 6.00102,10.40123 -0.11223,2.33061 -0.22807,2.82609 -1.02606,4.38885 -1.08875,2.13216 -2.4509,3.25408 -4.94559,4.07341 -1.57552,0.51744 -2.47292,0.59478 -7.9925,0.68876 -4.8061,0.0818 -6.2928,0.0292 -6.54844,-0.23174 z m 11.57022,-3.95953 c 2.74164,-0.58798 3.86255,-2.55741 3.65932,-6.4294 -0.23136,-4.40811 -1.57266,-5.49224 -7.01939,-5.67357 l -3.24921,-0.10817 v 6.24965 6.24965 h 2.63281 c 1.44804,0 3.23745,-0.12967 3.97647,-0.28816 z"
         id="path14" />
      <path
         style="fill:#000000;fill-opacity:1"
         d="m 94.015726,150.78904 c -0.264995,-0.51027 3.241584,-14.3618 4.013787,-15.85507 0.999483,-1.93279 3.043167,-3.24614 5.862167,-3.76726 0.85556,-0.15816 3.66833,-0.28757 6.25058,-0.28757 3.91541,0 4.76405,0.069 5.11078,0.41578 0.36253,0.36253 0.41578,1.63189 0.41578,9.91256 0,10.92582 0.24054,10.04458 -2.74184,10.04458 -2.33146,0 -2.54983,-0.25136 -2.54983,-2.93503 v -2.10348 l -5.07697,0.0719 -5.07696,0.0719 -0.489441,1.98437 c -0.64231,2.60417 -1.013954,2.91042 -3.531842,2.91042 -1.585108,0 -1.990323,-0.0858 -2.186211,-0.46302 z m 16.361424,-12.23698 v -3.70417 h -2.38975 c -2.54641,0 -3.75005,0.3363 -4.59401,1.28357 -0.40366,0.45307 -1.99564,5.14987 -2.00873,5.92633 -0.002,0.10914 2.02072,0.19844 4.49457,0.19844 h 4.49792 z"
         id="path13" />
      <path
         style="fill:#000000;fill-opacity:1"
         d="m 72.428338,150.83629 c -0.36226,-0.36226 -0.415774,-1.61699 -0.415774,-9.74858 0,-8.84787 0.02624,-9.35655 0.504994,-9.78982 0.457743,-0.41425 1.181863,-0.44881 7.739062,-0.36941 8.035898,0.0973 8.25305,0.1382 10.2321,1.92615 1.403619,1.26808 1.995684,2.82787 1.848064,4.86869 -0.171346,2.36883 -1.450939,3.68615 -4.496207,4.62879 -0.360005,0.11143 -0.232161,0.35279 0.676686,1.27752 1.470889,1.4966 4.764781,6.70829 4.566441,7.22516 -0.196795,0.51284 -4.232834,0.54607 -5.140321,0.0423 -0.333102,-0.18491 -1.464196,-1.62673 -2.513542,-3.20406 -2.341806,-3.5201 -2.849743,-3.84933 -5.938669,-3.84933 h -2.186941 v 3.28839 c 0,4.03278 -0.05597,4.11994 -2.645833,4.11994 -1.296573,0 -1.932928,-0.11864 -2.23006,-0.41577 z m 12.526778,-11.21958 c 1.324965,-0.37999 2.138699,-1.25563 2.138699,-2.3014 0,-1.88421 -1.508029,-2.46379 -6.416146,-2.46594 l -3.373438,-0.001 v 2.51354 2.51355 h 3.375185 c 1.856351,0 3.780416,-0.11622 4.2757,-0.25827 z"
         id="path12" />
      <path
         style="fill:#000000;fill-opacity:1"
         d="m 57.129752,150.96628 c -0.424663,-0.24734 -0.463021,-0.92616 -0.463021,-8.19403 v -7.92436 h -3.518958 c -2.38419,0 -3.621344,-0.10238 -3.836459,-0.3175 -0.469478,-0.46948 -0.400618,-2.73658 0.09827,-3.23547 0.36248,-0.36248 1.629015,-0.41578 9.880868,-0.41578 8.833611,0 9.494308,0.0323 9.902976,0.48386 0.516208,0.5704 0.596803,2.69097 0.120382,3.16739 -0.215114,0.21512 -1.452268,0.3175 -3.836458,0.3175 h -3.518958 v 7.78631 c 0,6.72569 -0.05664,7.84295 -0.415774,8.20209 -0.482442,0.48244 -3.647673,0.57568 -4.412872,0.12999 z"
         id="path11" />
    </g>
    <path
       d="m -18.807638,143.57935 0.183969,1.87017 c 0.552774,5.60978 3.156849,11.07637 7.2347,15.1877 6.3157522,6.36762 15.4282416,8.8824 24.134961,6.66058 3.172073,-0.80946 5.082855,-1.65841 7.782987,-3.45767 6.23093,-4.15205 10.314103,-10.96336 11.153842,-18.60713 l 0.181384,-1.65365 H 24.02489 16.185575 l -5.16e-4,6.28385 c -6.11e-4,9.34296 0.271024,9.06095 -8.7307336,9.06095 -9.0017574,0 -8.730122,0.28201 -8.7307333,-9.06095 l -5.167e-4,-6.28385 h -8.7653564 z"
       style="display:inline;fill:#ffffff;fill-rule:evenodd;stroke-width:2;stroke-linejoin:round;stroke-dasharray:6.00001, 6.00001;paint-order:markers fill stroke"
       id="path23" />
    <path
       d="m -11.972396,125.58717 -0.612366,0.7276 c -3.303376,3.92781 -5.501822,8.99638 -6.025472,13.89114 l -0.190686,1.78594 h 8.761739 8.7622564 v -7.67292 -7.67291 h -4.3098145 c -3.7875704,0 -4.4356429,-0.0645 -5.3479939,-0.52969 z"
       style="display:inline;fill:#76bfc8;fill-opacity:1;fill-rule:evenodd;stroke-width:2;stroke-linejoin:round;stroke-dasharray:6.00001, 6.00001;paint-order:markers fill stroke"
       id="path22" />
    <path
       d="m 7.5003174,113.41685 c -15.7586361,0 -17.3786832,0.0396 -17.8185504,0.4377 -0.436044,0.39462 -0.483692,0.9291 -0.483692,5.40897 0,4.83703 0.0159,4.98237 0.588078,5.38314 0.4814739,0.33723 1.4871723,0.41186 5.550049,0.41186 h 4.96197101 l 0.072347,15.76389 c 0.0699125,15.25531 0.0889979,15.77626 0.58601074,16.13959 0.40795225,0.29822 1.75487325,0.37568 6.54843755,0.37568 5.6820637,0 6.0657067,-0.0309 6.5639407,-0.52916 0.517207,-0.51721 0.529166,-0.88196 0.529166,-16.13959 v -15.61041 h 5.027084 c 6.588412,0 6.085416,0.48471 6.085416,-5.86631 0,-4.10242 -0.06458,-4.87881 -0.438216,-5.29167 -0.415724,-0.45937 -1.314681,-0.48369 -17.7720416,-0.48369 z"
       style="display:inline;fill:#ffffff;fill-opacity:1;fill-rule:evenodd;stroke-width:2;stroke-linejoin:round;stroke-dasharray:6.00001, 6.00001;paint-order:markers fill stroke"
       id="path21" />
    <path
       d="m 25.784378,125.62107 0.612366,0.7276 c 3.303376,3.92781 5.501822,8.99638 6.025472,13.89114 l 0.190686,1.78594 h -8.761739 -8.762256 v -7.67292 -7.67291 h 4.309814 c 3.787571,0 4.435643,-0.0645 5.347994,-0.52969 z"
       style="display:inline;fill:#76bfc8;fill-opacity:1;fill-rule:evenodd;stroke-width:2;stroke-linejoin:round;stroke-dasharray:6.00001, 6.00001;paint-order:markers fill stroke"
       id="path24" />
    <path
       style="display:inline;fill:#000000"
       d="m 1.1341223,169.11442 c -3.7562708,-0.8478 -7.2967094,-2.40329 -10.1872348,-4.47578 -2.2143865,-1.58769 -5.3926045,-4.92629 -6.8790455,-7.22617 -6.526025,-10.09734 -5.624766,-22.91497 2.259527,-32.13483 l 1.283111,-1.50047 v -4.79653 c 0,-3.76988 0.08591,-4.96265 0.401354,-5.57266 0.841582,-1.62744 0.238457,-1.57884 19.5926762,-1.57884 H 25.243569 l 0.370283,0.005 a 1.6980727,1.6980727 44.633406 0 1 1.673429,1.65215 l 0.0107,0.39699 v 5.04099 c 0,2.83534 -0.119869,5.35627 -0.273959,5.76155 -0.232728,0.61212 -0.178861,0.82377 0.357923,1.40629 1.961862,2.12902 4.144275,6.5059 5.06415,10.15627 2.277377,9.03737 -0.109366,18.1919 -6.495812,24.91517 -2.564981,2.70025 -4.609656,4.20429 -7.780428,5.72317 -4.225692,2.02422 -5.892916,2.40613 -10.9802081,2.51522 -3.1418165,0.0674 -4.8393518,-0.0133 -6.0555246,-0.28779 z M 12.745897,167.2976 c 3.172076,-0.80946 5.083015,-1.6584 7.78315,-3.45766 6.230936,-4.15205 10.313794,-10.96337 11.153533,-18.60715 l 0.181668,-1.65365 H 24.024864 16.18548 l -4.11e-4,6.28386 c -6.11e-4,9.34297 0.270928,9.06115 -8.7308387,9.06115 -9.0017664,0 -8.7302277,0.28182 -8.730839,-9.06115 l -4.112e-4,-6.28386 h -8.7654371 -8.765437 l 0.18429,1.87026 c 0.552775,5.60979 3.156715,11.07627 7.23457,15.18761 6.3157584,6.36762 15.4282029,8.88241 24.134931,6.66059 z m 1.322917,-10.48929 c 0.517208,-0.51721 0.529166,-0.88194 0.529166,-16.13958 v -15.61042 h 5.027084 c 6.588419,0 6.085417,0.48488 6.085417,-5.86615 0,-4.10242 -0.06425,-4.8788 -0.437883,-5.29166 -0.415725,-0.45937 -1.315019,-0.48386 -17.7723956,-0.48386 -15.7586518,0 -17.3785005,0.0398 -17.8183684,0.43788 -0.436044,0.39462 -0.483854,0.92908 -0.483854,5.40896 0,4.83703 0.01586,4.98218 0.588038,5.38295 0.4814742,0.33724 1.4872709,0.41188 5.5501516,0.41188 h 4.96211336 l 0.0722444,15.76413 c 0.0699126,15.25532 0.0888216,15.77626 0.58583498,16.13959 0.40795266,0.29822 1.75486856,0.37545 6.54843766,0.37545 5.682069,0 6.06578,-0.0309 6.564014,-0.52917 z M -1.2770199,134.31873 v -7.67292 h -4.309681 c -3.7875742,0 -4.4354461,-0.0641 -5.3477981,-0.52926 l -1.038116,-0.52927 -0.612013,0.7277 c -3.30338,3.92781 -5.501826,8.99596 -6.025476,13.89073 l -0.191062,1.78593 h 8.762073 8.7620731 z M 31.641867,140.338 c -0.214131,-1.96387 -0.907923,-4.79606 -1.668961,-6.81302 -0.680255,-1.80287 -2.643542,-5.15451 -3.64542,-6.22331 l -0.749297,-0.79935 -4.696354,0.0888 -4.696355,0.0888 v 7.65586 7.65586 h 7.818347 7.818347 z"
       id="path20" />
  </g>
</svg>
